<svg xmlns="http://www.w3.org/2000/svg" viewBox="0 0 127.57 127.57"><defs><style>.cls-1{fill:#fcbd2c;}.cls-2{fill:#fbc380;}.cls-3{fill:#bd6f15;}</style></defs><g id="Слой_2" data-name="Слой 2"><g id="Слой_1-2" data-name="Слой 1"><circle class="cls-1" cx="63.78" cy="63.78" r="63.78"/><circle class="cls-2" cx="63.78" cy="63.78" r="47.78"/><path class="cls-3" d="M65.62,87.73v7.41H62.07V88q-7.27,0-11.83-2.94v-6A16,16,0,0,0,55.66,82a20,20,0,0,0,6.41,1.17V65.71Q54.56,62.1,52.33,59a12.68,12.68,0,0,1,1.16-15.79,14,14,0,0,1,8.58-4.32V32.77h3.55v6q6.7.21,9.27,1.92v5.81a15.47,15.47,0,0,0-9.27-2.94v18q7.11,3.39,9.73,6.55A11,11,0,0,1,78,75.35a11.17,11.17,0,0,1-3.26,8.16A16,16,0,0,1,65.62,87.73Zm-3.55-28V43.77a7.81,7.81,0,0,0-4.55,2.55,7.13,7.13,0,0,0-1.67,4.77,8,8,0,0,0,1.37,4.82A14.73,14.73,0,0,0,62.07,59.7Zm3.55,7.79V82.94q6.6-1.44,6.6-7.11Q72.22,71.12,65.62,67.49Z"/></g></g></svg>