<svg xmlns="http://www.w3.org/2000/svg" viewBox="0 0 139.53 141.73"><defs><style>.cls-1{fill:#f0f2f5;}.cls-2{fill:#c9c9c9;}.cls-3{fill:#ffc;}</style></defs><g id="Слой_2" data-name="Слой 2"><g id="Слой_1-2" data-name="Слой 1"><path class="cls-1" d="M111,141.73H13a13,13,0,0,1-13-13V13A13,13,0,0,1,13,0h87.9a13,13,0,0,1,9.2,3.81l10.1,10.1a13,13,0,0,1,3.81,9.2V128.72A13,13,0,0,1,111,141.73Z"/><rect class="cls-2" x="17.72" y="26.57" width="88.58" height="17.72" rx="6.95"/><rect class="cls-2" x="17.72" y="53.15" width="88.58" height="17.72" rx="6.95"/><rect class="cls-2" x="17.72" y="79.72" width="88.58" height="17.72" rx="6.95"/><rect class="cls-2" x="17.72" y="106.3" width="88.58" height="17.72" rx="6.95"/><path class="cls-3" d="M121.38,27.06,67.93,80.51a5.32,5.32,0,0,0-1.29,2.08L62.1,96.22a5.32,5.32,0,0,0,6.72,6.72L82.45,98.4a5.21,5.21,0,0,0,2.07-1.29L138,43.66a5.32,5.32,0,0,0,0-7.51l-9.09-9.09A5.32,5.32,0,0,0,121.38,27.06Z"/></g></g></svg>