<svg xmlns="http://www.w3.org/2000/svg" viewBox="0 0 124.02 115.16"><defs><style>.cls-1{fill:#898989;}.cls-2{fill:#999;}.cls-3{fill:#666;}</style></defs><g id="Слой_2" data-name="Слой 2"><g id="Слой_1-2" data-name="Слой 1"><rect class="cls-1" x="35.43" y="8.86" width="53.15" height="62.01"/><rect class="cls-2" y="62.01" width="124.02" height="53.15"/><rect class="cls-2" y="53.15" width="8.86" height="26.57" rx="4.43"/><rect class="cls-2" x="17.72" y="53.15" width="8.86" height="26.57" rx="4.43"/><rect class="cls-2" x="97.44" y="53.15" width="8.86" height="26.57" rx="4.43"/><rect class="cls-1" x="79.72" width="8.86" height="26.57" rx="4.43"/><rect class="cls-1" x="35.43" width="8.86" height="26.57" rx="4.43"/><rect class="cls-2" x="115.16" y="53.15" width="8.86" height="26.57" rx="4.43"/><path class="cls-1" d="M62,88.58c-9.79,0-17.72,11.9-17.72,26.58H79.72C79.72,100.48,71.79,88.58,62,88.58Z"/><path class="cls-3" d="M48.72,26.57h0A4.43,4.43,0,0,1,53.15,31V44.29a0,0,0,0,1,0,0H44.29a0,0,0,0,1,0,0V31A4.43,4.43,0,0,1,48.72,26.57Z"/><path class="cls-3" d="M75.3,26.57h0A4.43,4.43,0,0,1,79.72,31V44.29a0,0,0,0,1,0,0H70.87a0,0,0,0,1,0,0V31A4.43,4.43,0,0,1,75.3,26.57Z"/><path class="cls-1" d="M93,79.72h0a4.43,4.43,0,0,1,4.43,4.43V97.44a0,0,0,0,1,0,0H88.58a0,0,0,0,1,0,0V84.15A4.43,4.43,0,0,1,93,79.72Z"/><path class="cls-1" d="M110.73,79.72h0a4.43,4.43,0,0,1,4.43,4.43V97.44a0,0,0,0,1,0,0H106.3a0,0,0,0,1,0,0V84.15A4.43,4.43,0,0,1,110.73,79.72Z"/><path class="cls-1" d="M13.29,79.72h0a4.43,4.43,0,0,1,4.43,4.43V97.44a0,0,0,0,1,0,0H8.86a0,0,0,0,1,0,0V84.15A4.43,4.43,0,0,1,13.29,79.72Z"/><path class="cls-1" d="M31,79.72h0a4.43,4.43,0,0,1,4.43,4.43V97.44a0,0,0,0,1,0,0H26.57a0,0,0,0,1,0,0V84.15A4.43,4.43,0,0,1,31,79.72Z"/></g></g></svg>