<svg xmlns="http://www.w3.org/2000/svg" viewBox="0 0 106.3 125.52"><defs><style>.cls-1{fill:#666;}.cls-2{fill:none;stroke:#0cf;stroke-miterlimit:10;stroke-width:3px;}.cls-3{fill:#999;}</style></defs><g id="Слой_2" data-name="Слой 2"><g id="Слой_1-2" data-name="Слой 1"><rect class="cls-1" x="44.29" y="28.07" width="17.72" height="62.01"/><path class="cls-2" d="M53.15,33s5.31-17.43,15.94-13.07S79.72,63.51,79.72,63.51"/><path class="cls-2" d="M53.15,33S47.83,15.56,37.2,19.92,26.57,63.51,26.57,63.51"/><path class="cls-2" d="M53.15,29.5S62-5.94,79.72,2.92,97.44,91.5,97.44,91.5"/><path class="cls-2" d="M53.15,29.5S44.29-5.94,26.57,2.92,8.86,91.5,8.86,91.5"/><path class="cls-3" d="M53.15,54.65H17.72s0,17.72,35.43,17.72S88.58,54.65,88.58,54.65Z"/><path class="cls-3" d="M53.15,90.08H0s0,35.44,53.15,35.44S106.3,90.08,106.3,90.08Z"/><path class="cls-3" d="M53.15,28.07H35.43s0,8.86,17.72,8.86,17.72-8.86,17.72-8.86Z"/></g></g></svg>