<svg xmlns="http://www.w3.org/2000/svg" viewBox="0 0 128.06 173.74"><defs><style>.cls-1{fill:#960;}.cls-2{fill:#fff;}</style></defs><g id="Слой_2" data-name="Слой 2"><g id="Слой_1-2" data-name="Слой 1"><path class="cls-1" d="M1.26,159.57,55.81,64.11a9.47,9.47,0,0,1,16.44,0l54.55,95.46a9.47,9.47,0,0,1-8.22,14.17H9.49A9.47,9.47,0,0,1,1.26,159.57Z"/><path class="cls-2" d="M79.33,6.77,64,40.74l-15.3-34c-3-6.72-11.6-9-16.29-4.29L7.93,27C3.24,31.68,5.5,40.25,12.22,43.28l34,15.3-34,15.3c-6.72,3-9,11.6-4.29,16.29l24.51,24.51c4.69,4.69,13.26,2.43,16.29-4.29l15.3-34,15.3,34c3,6.72,11.6,9,16.29,4.29l24.51-24.51c4.69-4.69,2.43-13.26-4.29-16.29l-34-15.3,34-15.3c6.72-3,9-11.6,4.29-16.29L95.62,2.48C90.93-2.21,82.36.05,79.33,6.77Z"/></g></g></svg>